<?xml version="1.0" encoding="UTF-8" standalone="no"?>
<svg width="162px" height="262px" viewBox="0 0 162 262" version="1.1" xmlns="http://www.w3.org/2000/svg" xmlns:xlink="http://www.w3.org/1999/xlink">
    <!-- Generator: Sketch 3.8.1 (29687) - http://www.bohemiancoding.com/sketch -->
    <title>vertical</title>
    <desc>Created with Sketch.</desc>
    <defs></defs>
    <g id="logos" stroke="none" stroke-width="1" fill="none" fill-rule="evenodd">
        <g id="vertical" transform="translate(-169.000000, -120.000000)">
            <g transform="translate(169.000000, 119.000000)">
                <path d="M61.9421,233.9182 L60.7501,233.9182 C60.4111,233.9182 60.1211,234.1612 60.0621,234.4952 L56.9541,252.0382 C56.9181,252.2422 56.9731,252.4502 57.1071,252.6082 C57.2391,252.7682 57.4351,252.8582 57.6421,252.8582 L58.8411,252.8582 C59.1811,252.8582 59.4711,252.6152 59.5291,252.2812 L62.6301,234.7382 C62.6661,234.5342 62.6111,234.3262 62.4781,234.1682 C62.3451,234.0092 62.1501,233.9182 61.9421,233.9182" id="Fill-1" fill="#000000"></path>
                <path d="M63.0949,224.3508 C62.0469,224.3508 61.0809,225.1698 60.8969,226.2148 C60.8029,226.7468 60.9279,227.2478 61.2479,227.6288 C61.5619,228.0038 62.0239,228.2098 62.5469,228.2098 C63.5949,228.2098 64.5609,227.3908 64.7449,226.3458 C64.8389,225.8148 64.7139,225.3128 64.3939,224.9318 C64.0799,224.5568 63.6179,224.3508 63.0949,224.3508" id="Fill-3" fill="#000000"></path>
                <path d="M126.2892,233.9057 L125.1022,233.9057 C124.7632,233.9057 124.4742,234.1487 124.4162,234.4817 L122.5332,245.1557 C122.0352,247.9797 119.3402,250.2777 116.5252,250.2777 C115.2772,250.2777 114.1962,249.8087 113.4832,248.9587 C112.7482,248.0837 112.4682,246.8907 112.6952,245.6007 L114.6142,234.7237 C114.6512,234.5207 114.5952,234.3137 114.4632,234.1547 C114.3302,233.9967 114.1352,233.9057 113.9282,233.9057 L112.7412,233.9057 C112.4022,233.9057 112.1132,234.1487 112.0552,234.4817 L110.1732,245.1567 C109.8112,247.2037 110.2902,249.1397 111.5202,250.6057 C112.7292,252.0457 114.5072,252.8397 116.5252,252.8397 C120.5252,252.8397 124.3532,249.5927 125.0562,245.6007 L126.9752,234.7227 C127.0112,234.5197 126.9562,234.3127 126.8232,234.1537 C126.6902,233.9957 126.4962,233.9057 126.2892,233.9057" id="Fill-5" fill="#000000"></path>
                <path d="M43.5412,233.9203 C39.4422,234.0583 35.6932,237.2213 35.0052,241.1213 L33.0762,252.0723 C33.0412,252.2683 33.0952,252.4673 33.2222,252.6183 C33.3492,252.7703 33.5362,252.8573 33.7332,252.8573 L34.9922,252.8573 C35.3162,252.8573 35.5922,252.6243 35.6492,252.3053 L37.5432,241.5693 C38.0232,238.8463 40.5812,236.6243 43.3652,236.5113 C43.6822,236.4973 43.9412,236.2733 43.9962,235.9643 L44.2182,234.7063 C44.2522,234.5053 44.1962,234.3023 44.0612,234.1483 C43.9292,233.9963 43.7372,233.9103 43.5412,233.9203" id="Fill-7" fill="#000000"></path>
                <path d="M87.5031,250.2671 C85.7301,250.2671 84.1891,249.5951 83.1651,248.3751 C82.1141,247.1231 81.7121,245.4271 82.0341,243.5991 C82.7271,239.6761 86.4741,236.4851 90.3881,236.4851 C92.1621,236.4851 93.7021,237.1561 94.7251,238.3751 C95.7761,239.6281 96.1781,241.3251 95.8571,243.1511 C95.1641,247.0751 91.4171,250.2671 87.5031,250.2671 M90.3881,233.9071 C87.9721,233.9071 85.5231,234.8291 83.4921,236.5051 C83.1781,236.7641 82.8261,236.7151 82.6011,236.5851 C82.3241,236.4241 82.1931,236.1361 82.2501,235.8151 L82.4411,234.7331 C82.4781,234.5281 82.4221,234.3181 82.2881,234.1581 C82.1531,233.9971 81.9571,233.9061 81.7481,233.9061 L80.5511,233.9061 C80.2091,233.9061 79.9171,234.1511 79.8571,234.4881 L75.1261,261.3601 C75.0891,261.5661 75.1451,261.7761 75.2791,261.9351 C75.4141,262.0951 75.6101,262.1871 75.8191,262.1871 L77.0101,262.1871 C77.3531,262.1871 77.6451,261.9421 77.7041,261.6051 L79.6861,250.3491 C79.7431,250.0281 79.9601,249.7881 80.2681,249.7051 C80.5241,249.6401 80.8971,249.6801 81.1911,250.0331 C82.7121,251.8461 84.9541,252.8451 87.5031,252.8451 C92.6101,252.8451 97.4961,248.6981 98.3951,243.5991 C98.8521,241.0091 98.2501,238.5661 96.7001,236.7181 C95.1781,234.9051 92.9361,233.9071 90.3881,233.9071" id="Fill-9" fill="#000000"></path>
                <path d="M158.9704,243.1509 C158.2784,247.0749 154.5314,250.2669 150.6164,250.2669 C148.8434,250.2669 147.3034,249.5949 146.2794,248.3759 C145.2274,247.1239 144.8254,245.4259 145.1484,243.5989 C145.8404,239.6759 149.5874,236.4849 153.5014,236.4849 C155.2754,236.4849 156.8154,237.1569 157.8394,238.3759 C158.8904,239.6289 159.2924,241.3249 158.9704,243.1509 M159.8134,236.7179 C158.2914,234.9049 156.0504,233.9069 153.5014,233.9069 C151.0864,233.9069 148.6374,234.8299 146.6054,236.5049 C146.2904,236.7639 145.9374,236.7149 145.7144,236.5859 C145.4384,236.4239 145.3074,236.1359 145.3644,235.8149 L145.5544,234.7329 C145.5914,234.5279 145.5354,234.3179 145.4014,234.1579 C145.2664,233.9979 145.0704,233.9059 144.8614,233.9059 L143.6644,233.9059 C143.3214,233.9059 143.0294,234.1509 142.9704,234.4879 L138.2394,261.3599 C138.2024,261.5659 138.2594,261.7759 138.3934,261.9349 C138.5274,262.0949 138.7244,262.1869 138.9334,262.1869 L140.1244,262.1869 C140.4684,262.1869 140.7594,261.9419 140.8174,261.6049 L142.8004,250.3489 C142.8564,250.0279 143.0744,249.7879 143.3814,249.7059 C143.6384,249.6389 144.0104,249.6789 144.3044,250.0329 C145.8254,251.8459 148.0674,252.8449 150.6164,252.8449 C155.7234,252.8449 160.6104,248.6979 161.5084,243.5989 C161.9654,241.0089 161.3644,238.5659 159.8134,236.7179" id="Fill-12" fill="#000000"></path>
                <path d="M11.0407,236.6801 C12.8137,236.6801 14.3537,237.3521 15.3777,238.5721 C16.4297,239.8241 16.8317,241.5201 16.5097,243.3471 C15.8177,247.2711 12.0697,250.4621 8.1557,250.4621 C6.3817,250.4621 4.8407,249.7911 3.8177,248.5721 C2.7677,247.3191 2.3657,245.6221 2.6867,243.7951 C3.3787,239.8711 7.1257,236.6801 11.0407,236.6801 M22.7297,224.7031 L21.5457,224.7031 C21.2047,224.7031 20.9137,224.9481 20.8537,225.2841 L18.8677,236.5431 C18.8087,236.8781 18.5777,237.1311 18.2487,237.2191 C17.9207,237.3031 17.5937,237.2021 17.3527,236.9141 C15.8317,235.1011 13.5897,234.1021 11.0407,234.1021 C5.9337,234.1021 1.0467,238.2491 0.1487,243.3471 C-0.3083,245.9381 0.2937,248.3811 1.8437,250.2291 C3.3657,252.0421 5.6067,253.0401 8.1557,253.0401 C10.5477,253.0401 12.9777,252.1331 14.9977,250.4861 C15.3267,250.2191 15.6917,250.2681 15.9247,250.4061 C16.2077,250.5721 16.3417,250.8681 16.2837,251.1981 L16.1037,252.2161 C16.0667,252.4211 16.1237,252.6311 16.2567,252.7901 C16.3917,252.9511 16.5877,253.0421 16.7957,253.0421 L17.9777,253.0421 C18.3207,253.0421 18.6117,252.7971 18.6697,252.4611 L23.4227,225.5301 C23.4587,225.3251 23.4027,225.1151 23.2697,224.9551 C23.1347,224.7951 22.9387,224.7031 22.7297,224.7031" id="Fill-14" fill="#000000"></path>
                <path d="M139.1393,84.2243 C123.4243,60.5313 108.7323,33.0363 95.4713,2.5033 C95.0753,1.5903 94.1743,0.9993 93.1783,0.9993 L77.4273,0.9993 C76.4313,0.9993 75.5313,1.5903 75.1343,2.5033 C61.8733,33.0363 47.1813,60.5323 31.4663,84.2243 C15.5953,108.1523 2.1603,132.1263 11.9553,162.2733 C16.2823,175.5893 24.2463,187.0043 34.9893,195.2923 C48.7853,208.0243 66.7113,215.0343 85.4773,215.0343 C105.2713,215.0343 123.9023,207.3543 137.9503,193.4063 C147.6353,185.2163 154.5983,174.7433 158.6493,162.2733 C168.4453,132.1263 155.0103,108.1523 139.1393,84.2243" id="Fill-17" fill="#000000"></path>
                <path d="M77.427,13.5553 C76.351,13.5553 75.44,14.1443 74.99,15.1313 C62.918,41.6393 49.676,65.8153 35.634,86.9883 C20.465,109.8563 7.604,132.7033 16.711,160.7283 C25.335,187.2673 49.174,204.5343 77.443,204.7193 C105.68,204.5343 129.52,187.2673 138.144,160.7283 C147.25,132.7033 134.389,109.8563 119.221,86.9883 C105.177,65.8133 91.935,41.6373 79.864,15.1313 C79.415,14.1443 78.504,13.5553 77.427,13.5553" id="Fill-20" fill="#FEFEFE"></path>
            </g>
        </g>
    </g>
</svg>