<?xml version="1.0" encoding="UTF-8" standalone="no"?>
<svg width="395px" height="81px" viewBox="0 0 395 81" version="1.1" xmlns="http://www.w3.org/2000/svg" xmlns:xlink="http://www.w3.org/1999/xlink">
    <!-- Generator: Sketch 3.8.1 (29687) - http://www.bohemiancoding.com/sketch -->
    <title>horizontal</title>
    <desc>Created with Sketch.</desc>
    <defs></defs>
    <g id="logos" stroke="none" stroke-width="1" fill="none" fill-rule="evenodd">
        <g id="horizontal" transform="translate(-52.000000, -210.000000)">
            <g transform="translate(52.000000, 210.000000)">
                <path d="M197.7714,24.9849 L195.4224,24.9849 C194.7544,24.9849 194.1834,25.4639 194.0674,26.1219 L187.9434,60.6899 C187.8714,61.0929 187.9804,61.5019 188.2434,61.8139 C188.5054,62.1279 188.8894,62.3069 189.2984,62.3069 L191.6614,62.3069 C192.3314,62.3069 192.9024,61.8279 193.0174,61.1699 L199.1274,26.6009 C199.1984,26.1989 199.0894,25.7889 198.8264,25.4779 C198.5654,25.1639 198.1804,24.9849 197.7714,24.9849" id="Fill-1" fill="#231815"></path>
                <path d="M200.0431,6.1325 C197.9771,6.1325 196.0751,7.7465 195.7121,9.8055 C195.5281,10.8525 195.7731,11.8415 196.4031,12.5925 C197.0221,13.3315 197.9321,13.7375 198.9631,13.7375 C201.0291,13.7375 202.9311,12.1225 203.2941,10.0635 C203.4791,9.0175 203.2331,8.0275 202.6031,7.2775 C201.9851,6.5385 201.0741,6.1325 200.0431,6.1325" id="Fill-3" fill="#000000"></path>
                <path d="M324.5662,24.9603 L322.2272,24.9603 C321.5592,24.9603 320.9902,25.4383 320.8752,26.0943 L317.1662,47.1273 C316.1842,52.6923 310.8732,57.2213 305.3262,57.2213 C302.8662,57.2213 300.7372,56.2973 299.3312,54.6223 C297.8842,52.8973 297.3322,50.5473 297.7792,48.0053 L301.5612,26.5723 C301.6332,26.1723 301.5242,25.7633 301.2632,25.4523 C301.0012,25.1403 300.6172,24.9603 300.2092,24.9603 L297.8702,24.9603 C297.2022,24.9603 296.6332,25.4383 296.5182,26.0943 L292.8092,47.1293 C292.0962,51.1643 293.0392,54.9783 295.4642,57.8673 C297.8462,60.7053 301.3492,62.2703 305.3262,62.2703 C313.2092,62.2703 320.7512,55.8713 322.1372,48.0053 L325.9182,26.5703 C325.9892,26.1713 325.8802,25.7613 325.6182,25.4503 C325.3572,25.1383 324.9732,24.9603 324.5662,24.9603" id="Fill-5" fill="#000000"></path>
                <path d="M161.5128,24.989 C153.4358,25.26 146.0478,31.493 144.6938,39.179 L140.8918,60.758 C140.8238,61.143 140.9288,61.535 141.1788,61.834 C141.4298,62.132 141.7978,62.303 142.1868,62.303 L144.6668,62.303 C145.3058,62.303 145.8498,61.845 145.9618,61.216 L149.6948,40.062 C150.6408,34.695 155.6788,30.317 161.1668,30.094 C161.7908,30.067 162.3018,29.625 162.4088,29.017 L162.8468,26.538 C162.9148,26.142 162.8028,25.741 162.5378,25.437 C162.2768,25.139 161.8998,24.97 161.5128,24.989" id="Fill-7" fill="#000000"></path>
                <path d="M248.139,57.2 C244.644,57.2 241.609,55.876 239.591,53.473 C237.521,51.006 236.729,47.663 237.363,44.061 C238.727,36.331 246.111,30.042 253.823,30.042 C257.319,30.042 260.353,31.364 262.37,33.768 C264.442,36.237 265.234,39.579 264.599,43.178 C263.235,50.909 255.852,57.2 248.139,57.2 M253.823,24.962 C249.064,24.962 244.237,26.781 240.236,30.083 C239.617,30.593 238.924,30.497 238.479,30.241 C237.934,29.923 237.677,29.355 237.788,28.722 L238.165,26.59 C238.238,26.186 238.127,25.772 237.862,25.457 C237.598,25.141 237.21,24.96 236.798,24.96 L234.44,24.96 C233.765,24.96 233.19,25.443 233.073,26.107 L223.749,79.058 C223.677,79.464 223.788,79.878 224.053,80.192 C224.317,80.507 224.705,80.688 225.117,80.688 L227.463,80.688 C228.139,80.688 228.714,80.205 228.831,79.541 L232.736,57.362 C232.848,56.729 233.276,56.255 233.882,56.094 C234.387,55.965 235.122,56.044 235.7,56.738 C238.698,60.312 243.116,62.28 248.139,62.28 C258.202,62.28 267.83,54.108 269.601,44.061 C270.501,38.958 269.316,34.143 266.261,30.502 C263.262,26.929 258.845,24.962 253.823,24.962" id="Fill-9" fill="#000000"></path>
                <path d="M388.9639,43.1777 C387.5999,50.9097 380.2159,57.1997 372.5039,57.1997 C369.0089,57.1997 365.9729,55.8757 363.9559,53.4727 C361.8839,51.0057 361.0919,47.6617 361.7269,44.0607 C363.0909,36.3307 370.4739,30.0427 378.1879,30.0427 C381.6819,30.0427 384.7179,31.3667 386.7349,33.7677 C388.8059,36.2367 389.5979,39.5797 388.9639,43.1777 M390.6259,30.5027 C387.6269,26.9287 383.2089,24.9627 378.1879,24.9627 C373.4279,24.9627 368.6029,26.7807 364.5989,30.0827 C363.9779,30.5927 363.2829,30.4967 362.8439,30.2407 C362.2989,29.9227 362.0409,29.3557 362.1529,28.7227 L362.5289,26.5907 C362.6009,26.1857 362.4899,25.7727 362.2259,25.4567 C361.9609,25.1417 361.5749,24.9607 361.1629,24.9607 L358.8039,24.9607 C358.1269,24.9607 357.5529,25.4437 357.4369,26.1077 L348.1139,79.0577 C348.0419,79.4637 348.1529,79.8777 348.4169,80.1917 C348.6819,80.5067 349.0689,80.6877 349.4809,80.6877 L351.8279,80.6877 C352.5049,80.6877 353.0799,80.2047 353.1939,79.5407 L357.1009,57.3617 C357.2119,56.7287 357.6399,56.2557 358.2449,56.0937 C358.7529,55.9627 359.4859,56.0417 360.0649,56.7387 C363.0629,60.3117 367.4799,62.2807 372.5039,62.2807 C382.5669,62.2807 392.1949,54.1077 393.9649,44.0607 C394.8659,38.9577 393.6799,34.1427 390.6259,30.5027" id="Fill-11" fill="#000000"></path>
                <path d="M97.4712,30.4271 C100.9662,30.4271 104.0002,31.7511 106.0182,34.1541 C108.0892,36.6211 108.8812,39.9641 108.2472,43.5641 C106.8842,51.2961 99.4992,57.5851 91.7872,57.5851 C88.2902,57.5851 85.2552,56.2631 83.2392,53.8591 C81.1682,51.3901 80.3772,48.0481 81.0112,44.4471 C82.3742,36.7161 89.7572,30.4271 97.4712,30.4271 M120.5052,6.8271 L118.1712,6.8271 C117.4992,6.8271 116.9252,7.3081 116.8072,7.9721 L112.8952,30.1581 C112.7782,30.8181 112.3222,31.3161 111.6742,31.4891 C111.0282,31.6551 110.3842,31.4561 109.9092,30.8891 C106.9112,27.3151 102.4942,25.3471 97.4712,25.3471 C87.4072,25.3471 77.7782,33.5191 76.0092,43.5641 C75.1082,48.6691 76.2942,53.4841 79.3482,57.1251 C82.3472,60.6981 86.7642,62.6651 91.7862,62.6651 C96.5002,62.6651 101.2892,60.8771 105.2682,57.6311 C105.9162,57.1051 106.6372,57.2021 107.0952,57.4731 C107.6522,57.8001 107.9162,58.3831 107.8022,59.0341 L107.4482,61.0411 C107.3762,61.4451 107.4862,61.8581 107.7502,62.1721 C108.0142,62.4881 108.4012,62.6691 108.8122,62.6691 L111.1412,62.6691 C111.8162,62.6691 112.3892,62.1861 112.5052,61.5241 L121.8702,8.4551 C121.9422,8.0511 121.8312,7.6381 121.5682,7.3241 C121.3032,7.0081 120.9162,6.8271 120.5052,6.8271" id="Fill-13" fill="#000000"></path>
                <path d="M47.3021,30.1638 C41.6061,21.5768 36.2811,11.6118 31.4751,0.5448 C31.3311,0.2138 31.0051,-0.0002 30.6441,-0.0002 L24.9351,-0.0002 C24.5741,-0.0002 24.2481,0.2138 24.1041,0.5448 C19.2981,11.6118 13.9731,21.5768 8.2771,30.1638 C2.5251,38.8358 -2.3449,47.5258 1.2061,58.4518 C2.7741,63.2778 5.6601,67.4158 9.5541,70.4188 C14.5541,75.0338 21.0511,77.5738 27.8531,77.5738 C35.0271,77.5738 41.7791,74.7908 46.8711,69.7358 C50.3811,66.7668 52.9051,62.9708 54.3731,58.4518 C57.9241,47.5258 53.0541,38.8358 47.3021,30.1638" id="Fill-15" fill="#000000"></path>
                <path d="M24.9352,4.5507 C24.5452,4.5507 24.2152,4.7637 24.0522,5.1217 C19.6762,14.7297 14.8772,23.4917 9.7872,31.1657 C4.2902,39.4537 -0.3708,47.7347 2.9292,57.8917 C6.0552,67.5107 14.6952,73.7687 24.9412,73.8357 C35.1752,73.7687 43.8152,67.5107 46.9412,57.8917 C50.2422,47.7347 45.5802,39.4537 40.0832,31.1657 C34.9922,23.4907 30.1932,14.7287 25.8182,5.1217 C25.6552,4.7637 25.3252,4.5507 24.9352,4.5507" id="Fill-18" fill="#FEFEFE"></path>
            </g>
        </g>
    </g>
</svg>